# xmcd CD database file
#
# Track frame offsets:
#	150
#	24105
#	40203
#	58278
#	84064
#	96167
#	112163
#	130171
#	147313
#	166215
#	183612
#
# Disc length: 2895 seconds
#
# Revision: 2
# Processed by: cddbd v1.5.2PL0 Copyright (c) Steve Scherf et al.
# Submitted via: CDex 1.70beta3
#
DISCID=900b4d0b
DTITLE=櫛田寒平 - 宙 -そら-
DYEAR=2014
DGENRE=New Age
TTITLE0=イノリ
TTITLE1=旅人
TTITLE2=風の中へ
TTITLE3=천천히（チョンチョニ）
TTITLE4=志々島
TTITLE5=아리랑（アリラン） -東アジア人ver.-
TTITLE6=宙 -そら-
TTITLE7=青空の下で
TTITLE8=クニヲコエテ
TTITLE9=流れ星
TTITLE10=あさ～2014～
EXTD=YEAR: 2014
EXTT0=
EXTT1=
EXTT2=
EXTT3=
EXTT4=
EXTT5=
EXTT6=
EXTT7=
EXTT8=
EXTT9=
EXTT10=
PLAYORDER=
